<svg xmlns="http://www.w3.org/2000/svg" viewBox="0 0 600 380" width="600" height="380">
  <defs>
    <linearGradient id="bg3" x1="0" y1="0" x2="1" y2="1">
      <stop offset="0%" stop-color="#faf5ff"/>
      <stop offset="100%" stop-color="#ede9fe"/>
    </linearGradient>
  </defs>
  <rect width="600" height="380" fill="url(#bg3)" rx="12"/>
  <!-- Left panel: Resume preview -->
  <rect x="16" y="16" width="230" height="348" rx="8" fill="#ffffff" opacity="0.97" stroke="#e9d5ff" stroke-width="1"/>
  <rect x="16" y="16" width="230" height="48" rx="8" fill="#7c3aed" opacity="0.9"/>
  <text x="131" y="37" text-anchor="middle" fill="white" font-family="sans-serif" font-size="12" font-weight="700">Tejas Guduru</text>
  <text x="131" y="53" text-anchor="middle" fill="#ddd6fe" font-family="sans-serif" font-size="9">tejas@email.com · Hyderabad</text>
  <!-- Resume sections -->
  <text x="28" y="84" fill="#7c3aed" font-family="sans-serif" font-size="10" font-weight="700">EXPERIENCE</text>
  <rect x="28" y="90" width="200" height="1" fill="#e9d5ff"/>
  <text x="28" y="106" fill="#374151" font-family="sans-serif" font-size="9" font-weight="600">Alfago Research LLP — Backend Intern</text>
  <text x="28" y="118" fill="#6b7280" font-family="sans-serif" font-size="8">• FastAPI portfolio management system</text>
  <text x="28" y="130" fill="#6b7280" font-family="sans-serif" font-size="8">• Docker + AWS deployment</text>
  <text x="28" y="152" fill="#7c3aed" font-family="sans-serif" font-size="10" font-weight="700">SKILLS</text>
  <rect x="28" y="158" width="200" height="1" fill="#e9d5ff"/>
  <!-- Highlighted skill pills -->
  <rect x="28" y="164" width="54" height="16" rx="8" fill="#ddd6fe"/>
  <text x="55" y="176" text-anchor="middle" fill="#5b21b6" font-family="sans-serif" font-size="8">Python</text>
  <rect x="88" y="164" width="56" height="16" rx="8" fill="#ddd6fe"/>
  <text x="116" y="176" text-anchor="middle" fill="#5b21b6" font-family="sans-serif" font-size="8">FastAPI</text>
  <rect x="150" y="164" width="50" height="16" rx="8" fill="#fef3c7"/>
  <text x="175" y="176" text-anchor="middle" fill="#92400e" font-family="sans-serif" font-size="8">React</text>
  <rect x="28" y="186" width="66" height="16" rx="8" fill="#dcfce7"/>
  <text x="61" y="198" text-anchor="middle" fill="#166534" font-family="sans-serif" font-size="8">NLP / ML</text>
  <rect x="100" y="186" width="70" height="16" rx="8" fill="#ddd6fe"/>
  <text x="135" y="198" text-anchor="middle" fill="#5b21b6" font-family="sans-serif" font-size="8">Gemini API</text>
  <!-- Highlight overlays on resume -->
  <rect x="24" y="100" width="210" height="36" rx="4" fill="#7c3aed" opacity="0.08" stroke="#7c3aed" stroke-width="0.5"/>
  <rect x="24" y="160" width="210" height="48" rx="4" fill="#7c3aed" opacity="0.08" stroke="#7c3aed" stroke-width="0.5"/>
  <!-- Right panel: Analysis -->
  <rect x="260" y="16" width="324" height="348" rx="8" fill="#ffffff" opacity="0.97" stroke="#e9d5ff" stroke-width="1"/>
  <text x="276" y="44" fill="#374151" font-family="sans-serif" font-size="13" font-weight="700">ATS Analysis Report</text>
  <!-- ATS Score gauge -->
  <circle cx="362" cy="130" r="52" fill="none" stroke="#f3f4f6" stroke-width="12"/>
  <circle cx="362" cy="130" r="52" fill="none" stroke="#7c3aed" stroke-width="12"
    stroke-dasharray="274" stroke-dashoffset="55" transform="rotate(-90 362 130)"
    stroke-linecap="round"/>
  <text x="362" y="122" text-anchor="middle" fill="#7c3aed" font-family="sans-serif" font-size="26" font-weight="800">87</text>
  <text x="362" y="140" text-anchor="middle" fill="#6b7280" font-family="sans-serif" font-size="10">ATS Score</text>
  <text x="362" y="155" text-anchor="middle" fill="#22c55e" font-family="sans-serif" font-size="9" font-weight="600">✓ Strong Match</text>
  <!-- Keyword matches -->
  <text x="432" y="90" fill="#374151" font-family="sans-serif" font-size="10" font-weight="600">Keyword Match</text>
  <rect x="432" y="100" width="130" height="8" rx="4" fill="#e9d5ff"/>
  <rect x="432" y="100" width="110" height="8" rx="4" fill="#7c3aed" opacity="0.8"/>
  <text x="432" y="120" fill="#6b7280" font-family="sans-serif" font-size="9">Skills: 85%</text>
  <rect x="432" y="128" width="130" height="8" rx="4" fill="#e9d5ff"/>
  <rect x="432" y="128" width="98" height="8" rx="4" fill="#7c3aed" opacity="0.8"/>
  <text x="432" y="148" fill="#6b7280" font-family="sans-serif" font-size="9">Experience: 75%</text>
  <rect x="432" y="156" width="130" height="8" rx="4" fill="#e9d5ff"/>
  <rect x="432" y="156" width="122" height="8" rx="4" fill="#22c55e" opacity="0.8"/>
  <text x="432" y="176" fill="#6b7280" font-family="sans-serif" font-size="9">Education: 94%</text>
  <!-- Feedback cards -->
  <rect x="272" y="200" width="300" height="40" rx="6" fill="#f0fdf4" stroke="#bbf7d0" stroke-width="1"/>
  <text x="284" y="218" fill="#15803d" font-family="sans-serif" font-size="9" font-weight="600">✓ Strong quantified metrics detected</text>
  <text x="284" y="232" fill="#6b7280" font-family="sans-serif" font-size="8">ML experience well-aligned with JD keywords</text>
  <rect x="272" y="248" width="300" height="40" rx="6" fill="#fffbeb" stroke="#fde68a" stroke-width="1"/>
  <text x="284" y="266" fill="#92400e" font-family="sans-serif" font-size="9" font-weight="600">⚠ Add certifications section</text>
  <text x="284" y="280" fill="#6b7280" font-family="sans-serif" font-size="8">Boosts ATS match by ~8% for FAANG JDs</text>
  <rect x="272" y="296" width="300" height="40" rx="6" fill="#eff6ff" stroke="#bfdbfe" stroke-width="1"/>
  <text x="284" y="314" fill="#1d4ed8" font-family="sans-serif" font-size="9" font-weight="600">ℹ 80%+ parsed · 95% accuracy · +60% engagement</text>
  <text x="284" y="328" fill="#6b7280" font-family="sans-serif" font-size="8">Powered by Gemini API NLP pipeline</text>
</svg>
