<svg xmlns="http://www.w3.org/2000/svg" viewBox="0 0 600 380" width="600" height="380">
  <defs>
    <linearGradient id="bg" x1="0" y1="0" x2="1" y2="1">
      <stop offset="0%" stop-color="#f0fdf9"/>
      <stop offset="100%" stop-color="#e0f7f0"/>
    </linearGradient>
    <linearGradient id="sidebar" x1="0" y1="0" x2="0" y2="1">
      <stop offset="0%" stop-color="#ffffff"/>
      <stop offset="100%" stop-color="#f8fffe"/>
    </linearGradient>
  </defs>
  <!-- Background -->
  <rect width="600" height="380" fill="url(#bg)" rx="12"/>
  <!-- Sidebar -->
  <rect x="0" y="0" width="160" height="380" fill="url(#sidebar)" rx="12" opacity="0.9"/>
  <rect x="160" y="0" width="1" height="380" fill="#d1fae5"/>
  <!-- Sidebar header -->
  <rect x="12" y="16" width="136" height="32" rx="8" fill="#a8e6cf" opacity="0.7"/>
  <text x="80" y="37" text-anchor="middle" fill="#065f46" font-family="sans-serif" font-size="12" font-weight="600">ЁЯПе MedChat AI</text>
  <!-- Chat history items -->
  <rect x="12" y="60" width="136" height="28" rx="6" fill="#d1fae5" opacity="0.8"/>
  <text x="24" y="79" fill="#047857" font-family="sans-serif" font-size="10">Headache symptoms</text>
  <rect x="12" y="94" width="136" height="28" rx="6" fill="#ecfdf5" opacity="0.8"/>
  <text x="24" y="113" fill="#6b7280" font-family="sans-serif" font-size="10">Blood pressure query</text>
  <rect x="12" y="128" width="136" height="28" rx="6" fill="#ecfdf5" opacity="0.8"/>
  <text x="24" y="147" fill="#6b7280" font-family="sans-serif" font-size="10">Multilingual: Hindi тЖТ</text>
  <rect x="12" y="162" width="136" height="28" rx="6" fill="#ecfdf5" opacity="0.8"/>
  <text x="24" y="181" fill="#6b7280" font-family="sans-serif" font-size="10">Diabetes management</text>
  <!-- Main chat area -->
  <!-- Bot bubble -->
  <rect x="180" y="30" width="280" height="60" rx="10" fill="#ffffff" opacity="0.95"/>
  <rect x="180" y="30" width="6" height="60" rx="3" fill="#a8e6cf"/>
  <text x="198" y="52" fill="#065f46" font-family="sans-serif" font-size="11" font-weight="600">ЁЯдЦ MedBot</text>
  <text x="198" y="70" fill="#374151" font-family="sans-serif" font-size="10">Your symptoms suggest mild tension headache.</text>
  <text x="198" y="84" fill="#374151" font-family="sans-serif" font-size="10">I recommend rest and hydration. See a doctor if...</text>
  <!-- User bubble -->
  <rect x="240" y="104" width="240" height="44" rx="10" fill="#a8e6cf" opacity="0.85"/>
  <text x="256" y="124" fill="#065f46" font-family="sans-serif" font-size="11" font-weight="600">You</text>
  <text x="256" y="140" fill="#064e3b" font-family="sans-serif" font-size="10">Mujhe sar dard hai (Hindi voice input)</text>
  <!-- Bot bubble 2 -->
  <rect x="180" y="162" width="300" height="72" rx="10" fill="#ffffff" opacity="0.95"/>
  <rect x="180" y="162" width="6" height="72" rx="3" fill="#a8e6cf"/>
  <text x="198" y="184" fill="#065f46" font-family="sans-serif" font-size="11" font-weight="600">ЁЯдЦ MedBot</text>
  <text x="198" y="200" fill="#374151" font-family="sans-serif" font-size="10">рдореБрдЭреЗ рд╕рдордЭ рдЖрдпрд╛ тАФ рд╕рд┐рд░рджрд░реНрдж рдХреЗ рд▓рд┐рдП:</text>
  <text x="198" y="216" fill="#374151" font-family="sans-serif" font-size="10">тАв рдЖрд░рд╛рдо рдХрд░реЗрдВ  тАв рдкрд╛рдиреА рдкрд┐рдПрдВ  тАв рдкреЗрдирдХрд┐рд▓рд░ рд▓реЗрдВ</text>
  <text x="198" y="228" fill="#6b7280" font-family="sans-serif" font-size="9">Translated via RAG + Pinecone retrieval</text>
  <!-- Input bar -->
  <rect x="172" y="330" width="410" height="36" rx="18" fill="#ffffff" stroke="#a8e6cf" stroke-width="1.5"/>
  <text x="196" y="353" fill="#9ca3af" font-family="sans-serif" font-size="11">Type or speak your symptoms...</text>
  <!-- Mic button -->
  <circle cx="558" cy="348" r="14" fill="#a8e6cf"/>
  <text x="558" y="353" text-anchor="middle" fill="#065f46" font-family="sans-serif" font-size="12">ЁЯОЩ</text>
  <!-- Tag strip -->
  <rect x="172" y="278" width="60" height="20" rx="10" fill="#d1fae5"/>
  <text x="202" y="292" text-anchor="middle" fill="#047857" font-family="sans-serif" font-size="9" font-weight="600">RAG</text>
  <rect x="240" y="278" width="70" height="20" rx="10" fill="#d1fae5"/>
  <text x="275" y="292" text-anchor="middle" fill="#047857" font-family="sans-serif" font-size="9" font-weight="600">Pinecone</text>
  <rect x="318" y="278" width="80" height="20" rx="10" fill="#d1fae5"/>
  <text x="358" y="292" text-anchor="middle" fill="#047857" font-family="sans-serif" font-size="9" font-weight="600">Gemini API</text>
  <rect x="406" y="278" width="70" height="20" rx="10" fill="#d1fae5"/>
  <text x="441" y="292" text-anchor="middle" fill="#047857" font-family="sans-serif" font-size="9" font-weight="600">Whisper</text>
</svg>
